<svg width="80" height="80" viewBox="0 0 80 80" fill="none" xmlns="http://www.w3.org/2000/svg">
<g clip-path="url(#clip0)">
<path d="M73.8568 31.1102L72.1997 29.4531L50.9735 50.6799L49.3158 55.6506L43.3747 61.5924L46.6889 64.9066L52.6306 58.9655L57.6013 57.3077L78.8281 36.0815L77.171 34.4244L80 31.283L76.6858 27.9688L73.8568 31.1102Z" fill="white"/>
<path d="M28.4375 28.2812H37.8125V37.6562H28.4375V28.2812Z" fill="white"/>
<path d="M42.5 51.7188H45.686L46.8762 48.1482L51.875 43.1494V42.3438H42.5V51.7188Z" fill="white"/>
<path d="M14.375 28.2812H23.75V37.6562H14.375V28.2812Z" fill="white"/>
<path d="M42.5 28.2812H51.875V37.6562H42.5V28.2812Z" fill="white"/>
<path d="M28.4375 42.3438H37.8125V51.7188H28.4375V42.3438Z" fill="white"/>
<path d="M14.375 42.3438H23.75V51.7188H14.375V42.3438Z" fill="white"/>
<path d="M65.9375 55.6006L60.1331 61.405L56.5625 62.5952V70.4688H9.6875V23.5938H56.5625V38.4619L65.9375 29.0869V0H0V80H65.9375V55.6006ZM14.375 9.375H51.875V14.0625H14.375V9.375Z" fill="white"/>
<path d="M14.375 56.4062H23.75V65.7812H14.375V56.4062Z" fill="white"/>
<path d="M28.4375 56.4062H37.8125V65.7812H28.4375V56.4062Z" fill="white"/>
</g>
<defs>
<clipPath id="clip0">
<rect width="80" height="80" fill="white"/>
</clipPath>
</defs>
</svg>
