<svg width="80" height="80" viewBox="0 0 80 80" fill="none" xmlns="http://www.w3.org/2000/svg">
<path d="M0 2.47607V49.3794H80V2.47607H0ZM31.8661 34.3986L28.5514 37.7133L16.7641 25.9261L28.5514 14.1387L31.8661 17.4534L23.3934 25.9261L31.8661 34.3986ZM39.578 40.0611L34.9803 39.1465L40.4219 11.7906L45.0195 12.7051L39.578 40.0611ZM51.4486 37.7133L48.1339 34.3986L56.6066 25.9261L48.1339 17.4534L51.4486 14.1387L63.2359 25.9261L51.4486 37.7133Z" fill="white"/>
<path d="M80 68.1408V54.0664H0V68.1408H25.6769V72.8359H20.9838V77.5238H59.0163V72.8359H54.323V68.1408H80Z" fill="white"/>
</svg>
