<svg width="80" height="80" viewBox="0 0 80 80" fill="none" xmlns="http://www.w3.org/2000/svg">
<g clip-path="url(#clip0)">
<path d="M26.2858 61.7144V70.8573H24V80.0001H37.7142V61.7144H26.2858Z" fill="white"/>
<path d="M53.7142 70.8573V61.7144H42.2858V80.0001H56V70.8573H53.7142Z" fill="white"/>
<path d="M26.2858 38.8574H19.4286V61.7146H26.2858V38.8574Z" fill="white"/>
<path d="M60.5714 38.8574H53.7142V61.7146H60.5714V38.8574Z" fill="white"/>
<path d="M53.7142 22.8572V16H43.4285V12.7947C45.4774 11.6089 46.8571 9.39469 46.8571 6.85703C46.8572 3.07016 43.7871 0 40 0C36.213 0 33.1428 3.07016 33.1428 6.85719C33.1428 9.39484 34.5225 11.6089 36.5714 12.7948V16H26.2856V22.8572H21.7142V32H26.2856V38.8572H53.7142V32H58.2857V22.8572H53.7142ZM33.1428 29.7142C31.8805 29.7142 30.857 28.6909 30.857 27.4284C30.857 26.1659 31.8803 25.1427 33.1428 25.1427C34.4052 25.1427 35.4286 26.1659 35.4286 27.4284C35.4286 28.6909 34.4053 29.7142 33.1428 29.7142ZM40 9.14281C38.7377 9.14281 37.7142 8.11922 37.7142 6.85703C37.7142 5.59484 38.7375 4.57125 40 4.57125C41.2625 4.57125 42.2858 5.59484 42.2858 6.85703C42.2858 8.11937 41.2624 9.14281 40 9.14281ZM46.8572 29.7142C45.5949 29.7142 44.5714 28.6909 44.5714 27.4284C44.5714 26.1659 45.5947 25.1427 46.8572 25.1427C48.1196 25.1427 49.143 26.1659 49.143 27.4284C49.143 28.6909 48.1196 29.7142 46.8572 29.7142Z" fill="white"/>
<path d="M46.2978 48.0037L41.9461 47.3715L40 43.4282L38.0539 47.3715L33.7021 48.0037L36.8512 51.0732L36.1078 55.4071L40 53.361L43.8922 55.4071L43.1487 51.0732L46.2978 48.0037Z" fill="white"/>
</g>
<defs>
<clipPath id="clip0">
<rect width="80" height="80" fill="white"/>
</clipPath>
</defs>
</svg>
