<svg xmlns="http://www.w3.org/2000/svg" id="canvas" viewBox="82.101 401.250 718.698 118.349"><path id="path" d="M 87.88,448.50 m 0.00 0.00 m 28.57 -43.65 c -0.17 0.44, -0.41 0.98, -0.87 2.22 c -0.47 1.24, -0.75 2.04, -1.47 3.97 c -0.71 1.93, -1.17 3.17, -2.10 5.69 c -0.94 2.51, -1.43 3.88, -2.57 6.87 c -1.15 2.98, -1.83 4.65, -3.17 8.05 c -1.35 3.40, -2.11 5.26, -3.57 8.95 c -1.46 3.69, -2.25 5.69, -3.73 9.50 c -1.47 3.81, -2.23 5.85, -3.64 9.56 c -1.41 3.71, -2.13 5.63, -3.39 8.99 c -1.26 3.36, -1.88 5.05, -2.91 7.80 c -1.03 2.75, -1.52 4.07, -2.24 5.97 c -0.73 1.90, -1.05 2.81, -1.38 3.52 c -0.34 0.71, -0.32 0.43, -0.30 0.05 c 0.02 -0.38, 0.22 -1.06, 0.42 -1.94 c 0.21 -0.88, 0.49 -1.96, 0.61 -2.44 m 29.34 -77.36 c 0.07 0.24, 0.16 0.44, 0.33 1.18 c 0.17 0.73, 0.27 1.19, 0.52 2.48 c 0.25 1.29, 0.40 2.11, 0.74 3.97 c 0.34 1.86, 0.52 2.97, 0.96 5.33 c 0.44 2.36, 0.69 3.71, 1.26 6.47 c 0.57 2.76, 0.91 4.26, 1.59 7.32 c 0.68 3.06, 1.08 4.72, 1.81 7.96 c 0.74 3.24, 1.14 4.98, 1.87 8.26 c 0.73 3.28, 1.10 4.97, 1.79 8.15 c 0.69 3.19, 1.03 4.82, 1.64 7.78 c 0.62 2.96, 0.92 4.42, 1.44 7.02 c 0.52 2.60, 0.77 3.87, 1.18 5.97 c 0.41 2.10, 0.62 3.11, 0.87 4.54 c 0.25 1.43, 0.29 1.89, 0.36 2.61 c 0.07 0.72, -0.02 0.78, -0.02 0.98 m -36.01 -31.22 c 0.28 -0.02, 0.55 -0.02, 1.39 -0.10 c 0.84 -0.08, 1.41 -0.14, 2.81 -0.28 c 1.40 -0.15, 2.35 -0.24, 4.19 -0.45 c 1.84 -0.20, 2.96 -0.32, 5.01 -0.56 c 2.06 -0.24, 3.18 -0.37, 5.27 -0.63 c 2.09 -0.26, 3.21 -0.41, 5.20 -0.66 c 1.99 -0.25, 2.99 -0.37, 4.77 -0.61 c 1.78 -0.25, 2.64 -0.39, 4.12 -0.61 c 1.48 -0.22, 2.11 -0.30, 3.26 -0.49 c 1.15 -0.19, 1.67 -0.29, 2.49 -0.46 c 0.82 -0.17, 1.13 -0.26, 1.63 -0.39 c 0.50 -0.13, 0.71 -0.22, 0.88 -0.27 m 12.42 -11.12 c 0.00 0.28, 0.01 0.58, 0.02 1.38 c 0.01 0.81, 0.01 1.33, 0.03 2.65 c 0.02 1.32, 0.01 2.17, 0.08 3.94 c 0.07 1.76, 0.09 2.82, 0.25 4.89 c 0.16 2.07, 0.24 3.25, 0.55 5.46 c 0.31 2.20, 0.51 3.41, 1.00 5.56 c 0.49 2.15, 0.81 3.29, 1.47 5.20 c 0.65 1.91, 1.06 2.85, 1.81 4.35 c 0.75 1.50, 1.17 2.16, 1.93 3.17 c 0.77 1.01, 1.16 1.42, 1.90 1.87 c 0.74 0.45, 1.08 0.56, 1.79 0.39 c 0.71 -0.18, 1.04 -0.42, 1.75 -1.26 c 0.71 -0.84, 1.07 -1.47, 1.81 -2.93 c 0.75 -1.46, 1.15 -2.42, 1.93 -4.36 c 0.78 -1.94, 1.20 -3.14, 1.97 -5.35 c 0.77 -2.21, 1.18 -3.46, 1.89 -5.71 c 0.70 -2.25, 1.05 -3.44, 1.63 -5.54 c 0.58 -2.10, 0.84 -3.17, 1.27 -4.97 c 0.43 -1.80, 0.57 -2.66, 0.87 -4.04 c 0.30 -1.38, 0.41 -1.95, 0.62 -2.85 c 0.20 -0.90, 0.27 -1.18, 0.40 -1.65 c 0.13 -0.47, 0.20 -0.54, 0.25 -0.68 m 15.01 3.59 c -0.02 0.33, -0.07 0.75, -0.12 1.63 c -0.04 0.88, -0.07 1.46, -0.10 2.79 c -0.03 1.33, -0.05 2.21, -0.05 3.87 c 0.00 1.66, 0.03 2.57, 0.06 4.43 c 0.03 1.86, 0.05 2.92, 0.11 4.87 c 0.06 1.95, 0.10 3.01, 0.18 4.88 c 0.08 1.87, 0.12 2.87, 0.22 4.46 c 0.09 1.59, 0.14 2.45, 0.26 3.49 c 0.12 1.04, 0.28 1.36, 0.35 1.70 m -0.80 -59.50 c -0.01 -0.04, -0.03 -0.17, -0.04 -0.21 m 17.20 30.04 c 0.03 0.26, 0.06 0.57, 0.14 1.28 c 0.08 0.71, 0.13 1.18, 0.24 2.29 c 0.12 1.11, 0.19 1.84, 0.34 3.24 c 0.14 1.41, 0.23 2.18, 0.38 3.79 c 0.15 1.61, 0.22 2.51, 0.38 4.24 c 0.16 1.73, 0.26 2.66, 0.41 4.39 c 0.15 1.73, 0.23 2.69, 0.35 4.28 c 0.12 1.59, 0.18 2.53, 0.27 3.67 c 0.09 1.14, 0.12 1.66, 0.17 2.03 c 0.05 0.37, 0.04 0.35, 0.09 -0.19 c 0.04 -0.54, 0.03 -1.12, 0.13 -2.50 c 0.10 -1.38, 0.14 -2.44, 0.37 -4.38 c 0.23 -1.95, 0.35 -3.19, 0.78 -5.35 c 0.42 -2.16, 0.68 -3.30, 1.33 -5.46 c 0.65 -2.16, 1.04 -3.32, 1.90 -5.35 c 0.87 -2.03, 1.38 -3.05, 2.42 -4.78 c 1.05 -1.72, 1.64 -2.55, 2.81 -3.84 c 1.17 -1.30, 1.82 -1.88, 3.05 -2.63 c 1.23 -0.75, 1.89 -1.00, 3.09 -1.14 c 1.20 -0.13, 1.82 -0.05, 2.90 0.47 c 1.08 0.51, 1.62 0.96, 2.51 2.10 c 0.89 1.14, 1.30 1.91, 1.95 3.59 c 0.65 1.68, 0.90 2.75, 1.31 4.82 c 0.41 2.07, 0.51 3.27, 0.72 5.53 c 0.21 2.26, 0.22 3.53, 0.32 5.76 c 0.10 2.23, 0.09 3.38, 0.18 5.37 c 0.09 1.99, 0.08 3.00, 0.28 4.57 c 0.20 1.56, 0.27 2.31, 0.71 3.25 c 0.45 0.94, 0.86 1.14, 1.51 1.44 c 0.65 0.30, 1.09 0.18, 1.72 0.08 c 0.63 -0.11, 1.14 -0.48, 1.42 -0.61 m 31.16 -27.36 c -0.05 -0.26, -0.06 -0.66, -0.27 -1.28 c -0.21 -0.61, -0.34 -1.06, -0.80 -1.79 c -0.46 -0.73, -0.77 -1.23, -1.52 -1.85 c -0.75 -0.62, -1.22 -0.90, -2.25 -1.26 c -1.02 -0.36, -1.64 -0.51, -2.87 -0.54 c -1.23 -0.03, -1.93 0.00, -3.27 0.38 c -1.34 0.38, -2.08 0.67, -3.41 1.52 c -1.34 0.85, -2.06 1.41, -3.27 2.73 c -1.21 1.31, -1.84 2.14, -2.76 3.84 c -0.93 1.70, -1.34 2.74, -1.88 4.66 c -0.53 1.91, -0.70 3.01, -0.79 4.91 c -0.09 1.91, 0.01 2.94, 0.35 4.62 c 0.35 1.69, 0.67 2.52, 1.38 3.82 c 0.71 1.30, 1.20 1.88, 2.16 2.69 c 0.96 0.81, 1.54 1.10, 2.65 1.35 c 1.12 0.25, 1.74 0.25, 2.92 -0.08 c 1.18 -0.34, 1.81 -0.67, 2.98 -1.60 c 1.17 -0.93, 1.77 -1.60, 2.88 -3.07 c 1.10 -1.47, 1.66 -2.42, 2.63 -4.28 c 0.97 -1.86, 1.44 -2.97, 2.21 -5.00 c 0.77 -2.02, 1.13 -3.18, 1.65 -5.12 c 0.52 -1.94, 0.70 -3.13, 0.95 -4.59 c 0.25 -1.45, 0.26 -2.15, 0.29 -2.68 c 0.03 -0.53, -0.06 -0.51, -0.14 0.02 c -0.08 0.53, -0.19 1.16, -0.26 2.64 c -0.07 1.47, -0.13 2.66, -0.10 4.73 c 0.04 2.07, 0.09 3.45, 0.28 5.61 c 0.20 2.16, 0.34 3.25, 0.71 5.21 c 0.37 1.96, 0.56 2.98, 1.12 4.59 c 0.56 1.61, 0.86 2.43, 1.68 3.45 c 0.82 1.02, 1.46 1.27, 2.42 1.67 c 0.96 0.40, 1.54 0.36, 2.38 0.35 c 0.84 -0.01, 1.44 -0.33, 1.81 -0.41 m 28.80 -33.67 c -0.14 -0.23, -0.22 -0.64, -0.68 -1.15 c -0.45 -0.51, -0.73 -0.92, -1.60 -1.41 c -0.87 -0.49, -1.45 -0.83, -2.74 -1.05 c -1.29 -0.22, -2.12 -0.20, -3.72 -0.03 c -1.59 0.17, -2.58 0.38, -4.25 0.86 c -1.67 0.48, -2.62 0.83, -4.09 1.55 c -1.47 0.72, -2.22 1.18, -3.25 2.06 c -1.03 0.88, -1.46 1.36, -1.88 2.33 c -0.42 0.96, -0.49 1.48, -0.23 2.50 c 0.25 1.01, 0.58 1.55, 1.49 2.57 c 0.91 1.02, 1.59 1.53, 3.06 2.53 c 1.47 1.00, 2.44 1.49, 4.28 2.47 c 1.84 0.98, 2.97 1.46, 4.92 2.44 c 1.95 0.98, 3.07 1.48, 4.85 2.47 c 1.78 0.99, 2.69 1.50, 4.04 2.49 c 1.35 0.99, 1.95 1.50, 2.70 2.46 c 0.74 0.96, 0.96 1.44, 1.02 2.36 c 0.07 0.92, -0.10 1.39, -0.70 2.23 c -0.59 0.84, -1.13 1.26, -2.28 1.99 c -1.15 0.74, -1.94 1.10, -3.48 1.68 c -1.54 0.59, -2.51 0.86, -4.23 1.25 c -1.72 0.39, -2.71 0.53, -4.39 0.68 c -1.68 0.14, -2.58 0.22, -4.00 0.04 c -1.41 -0.18, -2.13 -0.30, -3.06 -0.95 c -0.93 -0.65, -1.19 -1.31, -1.58 -2.31 c -0.39 -0.99, -0.35 -1.69, -0.36 -2.66 c -0.01 -0.98, 0.25 -1.78, 0.32 -2.22 m 30.37 -54.55 c 0.02 0.27, 0.04 0.56, 0.12 1.33 c 0.08 0.77, 0.13 1.26, 0.27 2.52 c 0.14 1.26, 0.23 2.06, 0.41 3.77 c 0.18 1.71, 0.30 2.69, 0.49 4.79 c 0.19 2.10, 0.29 3.30, 0.48 5.71 c 0.19 2.41, 0.28 3.71, 0.45 6.34 c 0.17 2.63, 0.25 4.06, 0.38 6.79 c 0.13 2.73, 0.19 4.17, 0.27 6.84 c 0.08 2.67, 0.10 4.03, 0.13 6.50 c 0.03 2.47, 0.02 3.72, 0.01 5.83 c -0.01 2.12, -0.04 3.24, -0.05 4.75 c -0.02 1.51, -0.05 2.11, -0.03 2.79 c 0.02 0.67, 0.02 0.80, 0.11 0.59 c 0.09 -0.22, 0.13 -0.64, 0.33 -1.68 c 0.20 -1.04, 0.31 -1.90, 0.68 -3.52 c 0.37 -1.61, 0.59 -2.67, 1.16 -4.55 c 0.57 -1.88, 0.90 -2.92, 1.69 -4.86 c 0.79 -1.94, 1.26 -3.01, 2.26 -4.84 c 1.00 -1.83, 1.60 -2.75, 2.74 -4.30 c 1.14 -1.55, 1.78 -2.28, 2.98 -3.43 c 1.20 -1.15, 1.84 -1.66, 3.01 -2.31 c 1.17 -0.66, 1.76 -0.86, 2.82 -0.97 c 1.06 -0.11, 1.58 -0.04, 2.49 0.43 c 0.91 0.47, 1.33 0.87, 2.04 1.91 c 0.71 1.04, 1.01 1.74, 1.50 3.29 c 0.49 1.55, 0.65 2.52, 0.93 4.45 c 0.28 1.93, 0.33 3.07, 0.46 5.19 c 0.13 2.12, 0.11 3.31, 0.17 5.41 c 0.07 2.10, 0.05 3.20, 0.17 5.11 c 0.11 1.91, 0.13 2.88, 0.39 4.42 c 0.26 1.54, 0.38 2.28, 0.90 3.28 c 0.52 1.00, 1.00 1.28, 1.72 1.71 c 0.72 0.44, 1.21 0.43, 1.90 0.47 c 0.69 0.04, 1.23 -0.22, 1.54 -0.27 m 65.96 -57.80 c 0.00 0.31, 0.03 0.66, 0.01 1.57 c -0.01 0.91, -0.03 1.50, -0.09 2.98 c -0.05 1.48, -0.09 2.45, -0.18 4.43 c -0.09 1.98, -0.15 3.11, -0.27 5.47 c -0.11 2.36, -0.20 3.70, -0.29 6.35 c -0.09 2.65, -0.12 4.09, -0.14 6.90 c -0.03 2.81, -0.01 4.32, 0.01 7.14 c 0.02 2.82, 0.04 4.30, 0.11 6.96 c 0.07 2.66, 0.12 4.00, 0.22 6.34 c 0.10 2.34, 0.17 3.47, 0.30 5.36 c 0.13 1.89, 0.20 2.75, 0.34 4.07 c 0.14 1.32, 0.23 1.78, 0.36 2.51 c 0.14 0.73, 0.22 0.88, 0.32 1.16 c 0.10 0.28, 0.15 0.19, 0.19 0.24 m -27.77 -62.93 c 0.17 -0.10, 0.26 -0.26, 0.87 -0.48 c 0.61 -0.22, 0.98 -0.38, 2.20 -0.63 c 1.22 -0.26, 2.02 -0.42, 3.92 -0.64 c 1.91 -0.23, 3.12 -0.30, 5.60 -0.50 c 2.49 -0.20, 3.92 -0.30, 6.83 -0.51 c 2.91 -0.21, 4.57 -0.33, 7.71 -0.53 c 3.14 -0.20, 4.86 -0.29, 7.98 -0.45 c 3.13 -0.16, 4.75 -0.26, 7.64 -0.35 c 2.90 -0.10, 4.34 -0.12, 6.84 -0.13 c 2.50 -0.01, 3.75 0.02, 5.66 0.08 c 1.91 0.06, 2.68 0.11, 3.88 0.20 c 1.20 0.08, 1.56 0.14, 2.14 0.22 c 0.58 0.08, 0.63 0.14, 0.78 0.18 m 8.56 34.88 c 0.03 -0.29, 0.13 -0.76, 0.13 -1.44 c 0.00 -0.68, 0.03 -1.12, -0.13 -1.94 c -0.17 -0.82, -0.27 -1.38, -0.70 -2.15 c -0.43 -0.77, -0.72 -1.10, -1.44 -1.69 c -0.71 -0.59, -1.15 -0.90, -2.13 -1.27 c -0.98 -0.38, -1.55 -0.54, -2.76 -0.61 c -1.22 -0.06, -1.91 -0.07, -3.32 0.29 c -1.41 0.36, -2.22 0.67, -3.75 1.52 c -1.53 0.84, -2.40 1.39, -3.91 2.70 c -1.51 1.31, -2.32 2.15, -3.64 3.87 c -1.32 1.71, -1.99 2.72, -2.95 4.69 c -0.96 1.97, -1.37 3.11, -1.84 5.14 c -0.47 2.03, -0.58 3.13, -0.52 5.03 c 0.06 1.90, 0.25 2.87, 0.81 4.47 c 0.56 1.60, 1.00 2.36, 2.00 3.52 c 0.99 1.16, 1.64 1.65, 2.96 2.28 c 1.32 0.63, 2.10 0.81, 3.64 0.86 c 1.54 0.06, 2.41 -0.06, 4.06 -0.58 c 1.65 -0.52, 2.55 -0.95, 4.20 -2.02 c 1.66 -1.06, 2.52 -1.78, 4.08 -3.30 c 1.56 -1.51, 2.34 -2.46, 3.70 -4.27 c 1.36 -1.82, 2.02 -2.88, 3.12 -4.82 c 1.10 -1.94, 1.58 -3.02, 2.36 -4.88 c 0.77 -1.86, 1.08 -2.99, 1.51 -4.41 c 0.44 -1.42, 0.53 -2.11, 0.67 -2.69 c 0.14 -0.58, 0.08 -0.63, 0.04 -0.21 c -0.04 0.42, -0.16 0.98, -0.25 2.32 c -0.09 1.34, -0.19 2.42, -0.22 4.38 c -0.03 1.96, -0.04 3.30, 0.09 5.44 c 0.13 2.14, 0.23 3.25, 0.54 5.28 c 0.31 2.03, 0.51 3.08, 1.00 4.87 c 0.49 1.79, 0.73 2.70, 1.44 4.08 c 0.71 1.38, 1.28 1.95, 2.12 2.81 c 0.84 0.87, 1.34 1.12, 2.06 1.53 c 0.72 0.42, 1.25 0.44, 1.56 0.55 m 36.92 -24.71 c -0.05 -0.30, -0.05 -0.76, -0.27 -1.51 c -0.22 -0.75, -0.35 -1.28, -0.84 -2.22 c -0.49 -0.94, -0.80 -1.57, -1.62 -2.47 c -0.81 -0.90, -1.31 -1.33, -2.45 -2.02 c -1.13 -0.69, -1.80 -1.04, -3.22 -1.44 c -1.42 -0.40, -2.24 -0.57, -3.90 -0.54 c -1.66 0.02, -2.58 0.13, -4.39 0.66 c -1.81 0.53, -2.84 0.92, -4.66 1.99 c -1.82 1.07, -2.83 1.80, -4.46 3.37 c -1.63 1.57, -2.46 2.56, -3.68 4.48 c -1.22 1.92, -1.76 3.06, -2.41 5.14 c -0.65 2.08, -0.83 3.26, -0.84 5.26 c -0.01 2.00, 0.19 3.04, 0.78 4.74 c 0.60 1.70, 1.10 2.52, 2.19 3.76 c 1.10 1.24, 1.82 1.77, 3.28 2.45 c 1.46 0.67, 2.34 0.88, 4.03 0.91 c 1.69 0.03, 2.64 -0.12, 4.42 -0.75 c 1.79 -0.63, 2.74 -1.12, 4.51 -2.40 c 1.77 -1.29, 2.69 -2.14, 4.34 -4.04 c 1.65 -1.90, 2.47 -3.06, 3.91 -5.46 c 1.44 -2.40, 2.12 -3.80, 3.29 -6.56 c 1.18 -2.76, 1.70 -4.30, 2.60 -7.22 c 0.89 -2.93, 1.26 -4.51, 1.88 -7.41 c 0.62 -2.90, 0.85 -4.39, 1.22 -7.08 c 0.37 -2.69, 0.48 -4.03, 0.65 -6.37 c 0.16 -2.34, 0.16 -3.62, 0.16 -5.33 c 0.01 -1.71, -0.05 -2.50, -0.13 -3.23 c -0.08 -0.73, -0.16 -0.84, -0.28 -0.42 c -0.11 0.42, -0.19 1.00, -0.29 2.54 c -0.10 1.54, -0.15 2.75, -0.22 5.16 c -0.06 2.41, -0.10 4.00, -0.11 6.88 c -0.01 2.88, -0.01 4.46, 0.06 7.52 c 0.08 3.06, 0.12 4.72, 0.31 7.79 c 0.19 3.07, 0.31 4.70, 0.63 7.57 c 0.32 2.86, 0.51 4.30, 0.96 6.76 c 0.45 2.46, 0.67 3.66, 1.27 5.55 c 0.60 1.89, 1.05 2.69, 1.73 3.91 c 0.68 1.23, 1.08 1.60, 1.65 2.23 c 0.57 0.62, 0.98 0.71, 1.22 0.89 m 29.86 -24.42 c -0.06 -0.24, -0.08 -0.62, -0.30 -1.20 c -0.23 -0.57, -0.36 -0.99, -0.82 -1.67 c -0.46 -0.67, -0.75 -1.12, -1.49 -1.69 c -0.73 -0.57, -1.17 -0.81, -2.18 -1.15 c -1.01 -0.34, -1.61 -0.49, -2.87 -0.54 c -1.25 -0.05, -1.98 -0.04, -3.40 0.28 c -1.42 0.32, -2.23 0.56, -3.72 1.31 c -1.49 0.74, -2.33 1.24, -3.73 2.41 c -1.40 1.17, -2.15 1.93, -3.27 3.45 c -1.12 1.52, -1.65 2.45, -2.34 4.16 c -0.69 1.71, -0.94 2.68, -1.12 4.40 c -0.17 1.71, -0.10 2.64, 0.25 4.17 c 0.35 1.52, 0.70 2.27, 1.51 3.45 c 0.81 1.18, 1.39 1.72, 2.56 2.44 c 1.17 0.72, 1.88 0.98, 3.27 1.17 c 1.40 0.19, 2.20 0.16, 3.70 -0.22 c 1.50 -0.38, 2.31 -0.74, 3.80 -1.68 c 1.49 -0.93, 2.26 -1.59, 3.63 -2.98 c 1.37 -1.39, 2.06 -2.29, 3.21 -3.98 c 1.16 -1.69, 1.70 -2.69, 2.56 -4.47 c 0.86 -1.78, 1.22 -2.78, 1.75 -4.43 c 0.53 -1.65, 0.68 -2.63, 0.88 -3.81 c 0.20 -1.18, 0.17 -1.73, 0.14 -2.09 c -0.03 -0.37, -0.17 -0.31, -0.31 0.26 c -0.13 0.57, -0.26 1.18, -0.37 2.57 c -0.10 1.39, -0.18 2.46, -0.15 4.38 c 0.03 1.92, 0.06 3.18, 0.28 5.21 c 0.21 2.03, 0.37 3.06, 0.79 4.93 c 0.42 1.87, 0.69 2.82, 1.30 4.40 c 0.60 1.58, 0.93 2.40, 1.71 3.51 c 0.78 1.12, 1.35 1.49, 2.18 2.06 c 0.83 0.58, 1.29 0.66, 1.96 0.82 c 0.67 0.17, 1.11 0.01, 1.39 0.01 m 6.77 -33.19 c 0.02 0.25, 0.03 0.51, 0.12 1.25 c 0.09 0.74, 0.14 1.22, 0.34 2.45 c 0.20 1.22, 0.32 2.03, 0.67 3.67 c 0.35 1.64, 0.58 2.63, 1.08 4.52 c 0.50 1.89, 0.78 2.96, 1.42 4.91 c 0.64 1.95, 1.02 3.00, 1.78 4.85 c 0.76 1.85, 1.21 2.81, 2.04 4.42 c 0.82 1.60, 1.28 2.37, 2.08 3.60 c 0.80 1.23, 1.22 1.86, 1.92 2.55 c 0.70 0.69, 1.00 0.92, 1.57 0.89 c 0.57 -0.03, 0.79 -0.24, 1.28 -1.03 c 0.49 -0.79, 0.68 -1.43, 1.18 -2.92 c 0.49 -1.49, 0.73 -2.54, 1.28 -4.53 c 0.55 -1.99, 0.86 -3.23, 1.47 -5.43 c 0.61 -2.21, 0.96 -3.39, 1.57 -5.59 c 0.61 -2.20, 0.92 -3.38, 1.50 -5.42 c 0.57 -2.04, 0.84 -3.05, 1.38 -4.77 c 0.53 -1.73, 0.83 -2.57, 1.29 -3.86 c 0.46 -1.29, 0.68 -1.79, 1.02 -2.58 c 0.34 -0.78, 0.54 -1.07, 0.67 -1.34 m 30.93 8.03 c -0.10 -0.26, -0.21 -0.68, -0.51 -1.29 c -0.31 -0.61, -0.49 -1.04, -1.01 -1.75 c -0.52 -0.70, -0.86 -1.20, -1.60 -1.78 c -0.73 -0.58, -1.13 -0.82, -2.07 -1.14 c -0.94 -0.32, -1.49 -0.43, -2.65 -0.44 c -1.16 -0.01, -1.81 0.03, -3.14 0.41 c -1.33 0.38, -2.09 0.66, -3.52 1.48 c -1.43 0.82, -2.24 1.35, -3.64 2.60 c -1.39 1.25, -2.16 2.03, -3.33 3.66 c -1.17 1.62, -1.73 2.62, -2.51 4.46 c -0.79 1.84, -1.10 2.90, -1.41 4.76 c -0.31 1.86, -0.33 2.86, -0.13 4.54 c 0.19 1.69, 0.45 2.53, 1.10 3.89 c 0.65 1.35, 1.13 1.97, 2.14 2.88 c 1.01 0.92, 1.65 1.29, 2.92 1.70 c 1.27 0.41, 2.01 0.49, 3.43 0.35 c 1.41 -0.14, 2.19 -0.36, 3.64 -1.04 c 1.45 -0.69, 2.23 -1.20, 3.62 -2.39 c 1.39 -1.19, 2.11 -1.97, 3.35 -3.54 c 1.24 -1.57, 1.85 -2.53, 2.85 -4.29 c 1.00 -1.77, 1.47 -2.78, 2.17 -4.54 c 0.70 -1.77, 0.95 -2.88, 1.32 -4.28 c 0.36 -1.41, 0.42 -2.13, 0.49 -2.76 c 0.08 -0.63, -0.02 -0.71, -0.11 -0.38 c -0.10 0.34, -0.24 0.83, -0.36 2.06 c -0.12 1.23, -0.23 2.25, -0.24 4.10 c -0.01 1.85, -0.00 3.13, 0.17 5.16 c 0.18 2.02, 0.31 3.07, 0.71 4.96 c 0.40 1.89, 0.66 2.85, 1.28 4.48 c 0.62 1.63, 1.00 2.44, 1.81 3.67 c 0.80 1.23, 1.28 1.75, 2.22 2.49 c 0.93 0.74, 1.45 1.01, 2.46 1.23 c 1.00 0.21, 1.54 0.20, 2.57 -0.17 c 1.02 -0.36, 1.54 -0.73, 2.54 -1.66 c 1.00 -0.92, 1.51 -1.57, 2.44 -2.95 c 0.93 -1.39, 1.39 -2.27, 2.20 -3.98 c 0.80 -1.72, 1.19 -2.74, 1.82 -4.60 c 0.63 -1.87, 0.89 -2.89, 1.33 -4.72 c 0.43 -1.83, 0.59 -2.78, 0.85 -4.43 c 0.25 -1.64, 0.29 -2.58, 0.42 -3.79 c 0.13 -1.21, 0.13 -1.78, 0.21 -2.26 c 0.08 -0.49, 0.10 -0.54, 0.19 -0.18 c 0.09 0.36, 0.15 0.83, 0.26 1.99 c 0.12 1.16, 0.19 2.06, 0.33 3.80 c 0.14 1.73, 0.22 2.90, 0.36 4.87 c 0.14 1.97, 0.20 3.03, 0.36 4.97 c 0.15 1.94, 0.24 3.09, 0.41 4.73 c 0.17 1.64, 0.29 2.52, 0.43 3.46 c 0.14 0.94, 0.22 1.24, 0.25 1.22 c 0.04 -0.01, 0.02 -0.33, -0.06 -1.29 c -0.08 -0.96, -0.18 -1.82, -0.34 -3.50 c -0.15 -1.68, -0.29 -2.89, -0.44 -4.91 c -0.15 -2.01, -0.24 -3.13, -0.30 -5.16 c -0.06 -2.02, -0.05 -3.07, 0.02 -4.97 c 0.07 -1.89, 0.13 -2.86, 0.35 -4.50 c 0.21 -1.64, 0.34 -2.41, 0.72 -3.69 c 0.39 -1.28, 0.60 -1.83, 1.22 -2.70 c 0.61 -0.87, 0.97 -1.19, 1.84 -1.65 c 0.88 -0.46, 1.38 -0.55, 2.53 -0.66 c 1.15 -0.11, 1.77 -0.03, 3.22 0.13 c 1.44 0.16, 2.29 0.37, 3.99 0.68 c 1.70 0.31, 2.61 0.56, 4.52 0.86 c 1.91 0.29, 3.17 0.44, 5.04 0.60 c 1.87 0.17, 2.87 0.20, 4.31 0.23 c 1.44 0.03, 2.31 -0.08, 2.89 -0.10 m 9.68 -26.99 c -0.05 0.29, -0.13 0.61, -0.25 1.44 c -0.12 0.84, -0.22 1.36, -0.35 2.73 c -0.13 1.37, -0.21 2.25, -0.30 4.11 c -0.09 1.86, -0.09 2.93, -0.14 5.19 c -0.05 2.26, -0.08 3.53, -0.09 6.12 c -0.01 2.59, 0.01 4.02, 0.05 6.83 c 0.04 2.82, 0.09 4.37, 0.16 7.25 c 0.07 2.88, 0.11 4.41, 0.21 7.17 c 0.11 2.76, 0.17 4.17, 0.31 6.61 c 0.14 2.45, 0.23 3.64, 0.40 5.62 c 0.17 1.97, 0.29 2.88, 0.44 4.24 c 0.16 1.35, 0.23 1.80, 0.35 2.53 c 0.12 0.74, 0.19 0.92, 0.23 1.15 m -12.91 -25.35 c 0.26 -0.00, 0.53 0.02, 1.28 -0.00 c 0.74 -0.02, 1.23 -0.03, 2.44 -0.12 c 1.21 -0.09, 2.01 -0.14, 3.61 -0.31 c 1.60 -0.17, 2.56 -0.28, 4.41 -0.56 c 1.85 -0.28, 2.88 -0.42, 4.84 -0.83 c 1.96 -0.40, 3.02 -0.64, 4.94 -1.18 c 1.92 -0.54, 2.92 -0.75, 4.66 -1.53 c 1.74 -0.78, 2.67 -1.40, 4.06 -2.36 c 1.39 -0.96, 1.99 -1.58, 2.90 -2.45 c 0.90 -0.87, 1.30 -1.53, 1.62 -1.92 m 1.81 -23.54 c 0.01 0.34, 0.03 0.74, 0.05 1.68 c 0.02 0.94, 0.02 1.55, 0.03 3.02 c 0.01 1.47, 0.02 2.42, 0.03 4.33 c 0.02 1.91, 0.03 2.97, 0.04 5.21 c 0.02 2.24, 0.01 3.51, 0.04 6.01 c 0.03 2.50, 0.06 3.86, 0.10 6.49 c 0.05 2.63, 0.09 4.05, 0.14 6.65 c 0.05 2.60, 0.06 3.95, 0.10 6.33 c 0.04 2.39, 0.06 3.58, 0.10 5.61 c 0.04 2.03, 0.04 3.10, 0.09 4.53 c 0.05 1.42, 0.05 1.99, 0.14 2.59 c 0.09 0.61, 0.14 0.69, 0.32 0.43 c 0.19 -0.26, 0.28 -0.67, 0.61 -1.71 c 0.33 -1.04, 0.51 -1.90, 1.03 -3.48 c 0.51 -1.58, 0.82 -2.63, 1.54 -4.42 c 0.72 -1.79, 1.15 -2.75, 2.06 -4.54 c 0.91 -1.79, 1.44 -2.78, 2.50 -4.41 c 1.06 -1.64, 1.67 -2.46, 2.79 -3.77 c 1.12 -1.31, 1.72 -1.90, 2.81 -2.77 c 1.09 -0.87, 1.65 -1.23, 2.64 -1.58 c 0.99 -0.34, 1.48 -0.38, 2.32 -0.14 c 0.85 0.25, 1.24 0.53, 1.91 1.38 c 0.67 0.84, 0.96 1.46, 1.44 2.84 c 0.48 1.37, 0.65 2.25, 0.97 4.02 c 0.32 1.77, 0.41 2.86, 0.63 4.83 c 0.22 1.97, 0.26 3.07, 0.47 5.00 c 0.21 1.93, 0.28 2.95, 0.57 4.66 c 0.29 1.71, 0.44 2.53, 0.86 3.88 c 0.41 1.35, 0.63 2.02, 1.22 2.87 c 0.59 0.85, 1.04 1.05, 1.73 1.38 c 0.69 0.34, 1.11 0.30, 1.71 0.30 c 0.60 -0.01, 1.02 -0.26, 1.27 -0.33 m 5.53 -29.07 c 0.05 0.20, 0.08 0.41, 0.27 1.01 c 0.19 0.60, 0.28 1.00, 0.67 1.97 c 0.38 0.97, 0.61 1.61, 1.26 2.88 c 0.64 1.26, 1.05 2.03, 1.97 3.44 c 0.92 1.41, 1.46 2.21, 2.63 3.60 c 1.17 1.39, 1.86 2.11, 3.21 3.35 c 1.36 1.24, 2.12 1.88, 3.56 2.86 c 1.44 0.98, 2.21 1.44, 3.66 2.06 c 1.45 0.62, 2.18 0.85, 3.57 1.05 c 1.39 0.19, 2.08 0.20, 3.37 -0.09 c 1.29 -0.28, 1.92 -0.58, 3.10 -1.33 c 1.18 -0.75, 1.74 -1.31, 2.80 -2.44 c 1.06 -1.13, 1.58 -1.86, 2.49 -3.22 c 0.91 -1.36, 1.35 -2.18, 2.06 -3.58 c 0.71 -1.41, 1.04 -2.32, 1.50 -3.45 c 0.46 -1.12, 0.64 -1.72, 0.80 -2.18 c 0.16 -0.45, 0.15 -0.53, 0.02 -0.08 c -0.13 0.45, -0.30 0.92, -0.69 2.31 c -0.39 1.39, -0.66 2.42, -1.26 4.62 c -0.61 2.20, -0.97 3.63, -1.76 6.39 c -0.79 2.76, -1.24 4.25, -2.18 7.39 c -0.94 3.14, -1.45 4.88, -2.54 8.30 c -1.08 3.42, -1.68 5.30, -2.88 8.82 c -1.20 3.52, -1.85 5.38, -3.12 8.76 c -1.27 3.39, -1.94 5.14, -3.21 8.17 c -1.27 3.03, -1.92 4.51, -3.13 6.97 c -1.21 2.46, -1.81 3.56, -2.90 5.34 c -1.10 1.78, -1.61 2.49, -2.58 3.55 c -0.97 1.06, -1.40 1.48, -2.28 1.75 c -0.88 0.27, -1.33 0.19, -2.14 -0.39 c -0.81 -0.58, -1.28 -1.04, -1.92 -2.50 c -0.64 -1.45, -0.92 -2.80, -1.30 -4.76 c -0.38 -1.96, -0.48 -3.24, -0.62 -5.03 c -0.14 -1.79, -0.06 -3.14, -0.07 -3.92" style="stroke: rgb(0, 0, 0); stroke-width: 2.438; fill: none; stroke-linecap: round;"/></svg>