<svg width="35" height="35" viewBox="0 0 35 35" fill="none" xmlns="http://www.w3.org/2000/svg">
<path d="M32.6525 8.93435C31.0876 6.18585 28.9649 4.00986 26.2839 2.40588C23.6025 0.801824 20.6751 0 17.4998 0C14.325 0 11.3967 0.802069 8.7158 2.40588C6.03453 4.00977 3.91193 6.18585 2.34703 8.93435C0.78237 11.6828 0 14.6841 0 17.9382C0 21.8471 1.11254 25.362 3.33818 28.484C5.56358 31.6062 8.43846 33.7667 11.9626 34.9656C12.3728 35.0436 12.6765 34.9888 12.8739 34.8023C13.0715 34.6156 13.1701 34.3818 13.1701 34.1018C13.1701 34.0551 13.1662 33.6349 13.1586 32.8406C13.1508 32.0463 13.1471 31.3533 13.1471 30.7621L12.623 30.855C12.2889 30.9178 11.8673 30.9444 11.3584 30.9368C10.8497 30.9296 10.3216 30.8749 9.77479 30.7733C9.22778 30.6726 8.71899 30.439 8.24804 30.0731C7.77733 29.7072 7.44316 29.2282 7.24564 28.6368L7.01778 28.0993C6.8659 27.7415 6.6268 27.344 6.30014 26.9083C5.97348 26.4721 5.64315 26.1765 5.30899 26.0208L5.14945 25.9037C5.04314 25.8259 4.9445 25.7321 4.85328 25.6232C4.76213 25.5143 4.6939 25.4053 4.64833 25.2962C4.60268 25.187 4.64051 25.0974 4.76221 25.0271C4.88392 24.9568 5.10388 24.9227 5.42303 24.9227L5.87858 24.9925C6.18242 25.0549 6.55824 25.2414 7.00653 25.553C7.45458 25.8644 7.8229 26.2692 8.11157 26.7672C8.46113 27.4058 8.88228 27.8924 9.37622 28.2273C9.86976 28.5621 10.3674 28.7293 10.8686 28.7293C11.3698 28.7293 11.8027 28.6903 12.1674 28.6129C12.5317 28.535 12.8735 28.4179 13.1927 28.2623C13.3294 27.2186 13.7016 26.4167 14.3091 25.8563C13.4433 25.763 12.6649 25.6225 11.9735 25.4358C11.2825 25.2487 10.5685 24.9452 9.83185 24.5244C9.09482 24.1041 8.4834 23.5823 7.99744 22.9597C7.5114 22.3368 7.11252 21.519 6.80134 20.5071C6.49 19.4948 6.3343 18.327 6.3343 17.0035C6.3343 15.119 6.93446 13.5153 8.13455 12.1916C7.57238 10.7748 7.62545 9.18657 8.29393 7.42699C8.73448 7.28669 9.38779 7.39198 10.2536 7.74221C11.1195 8.0926 11.7535 8.39277 12.1562 8.64163C12.5589 8.89042 12.8816 9.10124 13.1247 9.27223C14.5377 8.86751 15.9959 8.66511 17.4997 8.66511C19.0034 8.66511 20.462 8.86751 21.8751 9.27223L22.7409 8.71191C23.333 8.33803 24.0322 7.99541 24.8369 7.68396C25.642 7.37267 26.2576 7.28693 26.6832 7.42724C27.3665 9.1869 27.4274 10.7751 26.865 12.1919C28.0651 13.5156 28.6655 15.1196 28.6655 17.0037C28.6655 18.3272 28.5092 19.4987 28.1983 20.5188C27.8871 21.539 27.4848 22.356 26.9912 22.9714C26.4971 23.5867 25.8818 24.1045 25.1452 24.5246C24.4084 24.9451 23.6941 25.2487 23.0031 25.4357C22.3118 25.6227 21.5334 25.7632 20.6676 25.8567C21.4573 26.5571 21.8522 27.6628 21.8522 29.1732V34.1012C21.8522 34.3811 21.9471 34.6149 22.1372 34.8017C22.3271 34.9881 22.6269 35.043 23.0372 34.9649C26.5618 33.7661 29.4367 31.6056 31.662 28.4834C33.8871 25.3614 35 21.8464 35 17.9375C34.9992 14.6838 34.2164 11.6828 32.6525 8.93435Z" fill="black"/>
</svg>
