<svg width="80" height="80" viewBox="0 0 80 80" fill="none" xmlns="http://www.w3.org/2000/svg">
<path d="M9.375 46.8751C8.57656 46.8751 7.79375 46.8071 7.03125 46.6787V80.0001H11.7188V46.8751H9.375Z" fill="white"/>
<path d="M70.625 46.8751H68.2812V80.0001H72.9687V46.6787C72.2062 46.8071 71.4234 46.8751 70.625 46.8751Z" fill="white"/>
<path d="M70.625 0H9.375C4.20563 0 0 4.20563 0 9.375V32.8125C0 37.9819 4.20563 42.1875 9.375 42.1875H70.625C75.7944 42.1875 80 37.9819 80 32.8125V9.375C80 4.20563 75.7944 0 70.625 0ZM54.2188 28.125H25.7812V23.4375H54.2188V28.125ZM65.9375 18.75H14.0625V14.0625H65.9375V18.75Z" fill="white"/>
</svg>
