<svg width="72" height="50" viewBox="0 0 72 50" fill="none" xmlns="http://www.w3.org/2000/svg">
<g clip-path="url(#clip0)">
<path d="M69.9412 7.82353C69.1176 4.76471 66.7059 2.35294 63.6471 1.52941C58.0588 0 35.7059 0 35.7059 0C35.7059 0 13.3529 0 7.76471 1.47059C4.76471 2.29412 2.29412 4.76471 1.47059 7.82353C0 13.4118 0 25 0 25C0 25 0 36.6471 1.47059 42.1765C2.29412 45.2353 4.70588 47.6471 7.76471 48.4706C13.4118 50 35.7059 50 35.7059 50C35.7059 50 58.0588 50 63.6471 48.5294C66.7059 47.7059 69.1176 45.2941 69.9412 42.2353C71.4118 36.6471 71.4118 25.0588 71.4118 25.0588C71.4118 25.0588 71.4706 13.4118 69.9412 7.82353V7.82353Z" fill="black" fill-opacity="0.7"/>
<path d="M47.1765 24.9998L28.5883 14.2939V35.7057L47.1765 24.9998Z" fill="white"/>
</g>
<defs>
<clipPath id="clip0">
<rect width="71.4121" height="50" fill="white"/>
</clipPath>
</defs>
</svg>
