<svg width="80" height="80" viewBox="0 0 80 80" fill="none" xmlns="http://www.w3.org/2000/svg">
<path d="M72.8264 21.8445C68.7752 25.8958 62.2067 25.8958 58.1553 21.8445C54.1039 17.7933 54.1041 11.2247 58.1553 7.17344L50.9819 0L0 50.9819L7.17359 58.1555C11.2248 54.1042 17.7934 54.1042 21.8447 58.1555C25.8959 62.2067 25.8959 68.7753 21.8447 72.8266L29.0181 80L80 29.0181L72.8264 21.8445ZM39.9248 28.5853L36.597 25.2575L39.9116 21.943L43.2394 25.2708L39.9248 28.5853ZM46.5805 35.2411L43.2525 31.9133L46.567 28.5987L49.895 31.9266L46.5805 35.2411ZM53.2361 41.8969L49.9083 38.5689L53.2228 35.2544L56.5506 38.5823L53.2361 41.8969Z" fill="white"/>
</svg>
